<?xml version="1.0" standalone="no"?><!DOCTYPE svg PUBLIC "-//W3C//DTD SVG 1.1//EN" "http://www.w3.org/Graphics/SVG/1.1/DTD/svg11.dtd"><svg t="1613814757442" class="icon" viewBox="0 0 1024 1024" version="1.1" xmlns="http://www.w3.org/2000/svg" p-id="5027" width="128" height="128" xmlns:xlink="http://www.w3.org/1999/xlink"><defs><style type="text/css"></style></defs><path d="M682.666667 85.333333a42.666667 42.666667 0 0 1 42.666666 42.666667v42.666667a170.666667 170.666667 0 0 1 170.666667 170.666666v426.666667a170.666667 170.666667 0 0 1-170.666667 170.666667H298.666667a170.666667 170.666667 0 0 1-170.666667-170.666667V341.333333a170.666667 170.666667 0 0 1 170.666667-170.666666V128a42.666667 42.666667 0 1 1 85.333333 0v42.666667h256V128a42.666667 42.666667 0 0 1 42.666667-42.666667z m128 341.333334H213.333333v341.333333a85.333333 85.333333 0 0 0 78.933334 85.12L298.666667 853.333333h426.666666a85.333333 85.333333 0 0 0 85.12-78.933333L810.666667 768v-341.333333zM373.333333 512a10.666667 10.666667 0 0 1 10.666667 10.666667v64a10.666667 10.666667 0 0 1-10.666667 10.666666h-64a10.666667 10.666667 0 0 1-10.666666-10.666666v-64a10.666667 10.666667 0 0 1 10.666666-10.666667h64z m170.666667 0a10.666667 10.666667 0 0 1 10.666667 10.666667v64a10.666667 10.666667 0 0 1-10.666667 10.666666h-64a10.666667 10.666667 0 0 1-10.666667-10.666666v-64a10.666667 10.666667 0 0 1 10.666667-10.666667h64z m170.666667 0a10.666667 10.666667 0 0 1 10.666666 10.666667v64a10.666667 10.666667 0 0 1-10.666666 10.666666h-64a10.666667 10.666667 0 0 1-10.666667-10.666666v-64a10.666667 10.666667 0 0 1 10.666667-10.666667h64z" p-id="5028"></path></svg>