<?xml version="1.0" encoding="UTF-8"?>
<svg width="18px" height="18px" viewBox="0 0 18 18" version="1.1" xmlns="http://www.w3.org/2000/svg" xmlns:xlink="http://www.w3.org/1999/xlink">
    <title>icon_fugai</title>
    <g id="Page-1" stroke="none" stroke-width="1" fill="none" fill-rule="evenodd">
        <g id="首页" transform="translate(-44.000000, -305.000000)">
            <g id="编组-2" transform="translate(0.000000, 72.000000)">
                <g id="Email" transform="translate(0.000000, 176.000000)">
                    <g id="Group" transform="translate(44.000000, 57.000000)">
                        <path d="M0,0 L17.6100006,0 L17.6100006,18 L0,18 L0,0 Z" id="Shape"></path>
                        <path d="M16.1425014,15.0052501 C16.1397093,15.4150817 15.8155741,15.7467315 15.4146238,15.75 L2.19538034,15.75 C1.79326459,15.7495856 1.46750021,15.4162702 1.46750021,15.0052501 L1.46750021,14.25 L14.6750018,14.25 L14.6750018,5.47500021 L8.80500078,10.8750001 L1.46750021,4.12500009 L1.46750021,3.00000001 C1.46750021,2.58578648 1.79601133,2.25 2.20125028,2.25 L15.4087511,2.25 C15.8139901,2.25 16.1425014,2.58578648 16.1425014,3.00000001 L16.1425014,15.0052501 L16.1425014,15.0052501 Z M3.25344801,3.75 L8.80500045,8.85750008 L14.3565536,3.75 L3.25344801,3.75 L3.25344801,3.75 Z M0,11.25 L5.87000084,11.25 L5.87000084,12.75 L0,12.75 L0,11.25 L0,11.25 Z M0,7.5 L3.66875052,7.5 L3.66875052,9 L0,9 L0,7.5 L0,7.5 Z" id="Shape" fill-opacity="0.749019608" fill="#8590A5"></path>
                    </g>
                </g>
            </g>
        </g>
    </g>
</svg>