<?xml version="1.0" standalone="no"?><!DOCTYPE svg PUBLIC "-//W3C//DTD SVG 1.1//EN" "http://www.w3.org/Graphics/SVG/1.1/DTD/svg11.dtd"><svg t="1613798860465" class="icon" viewBox="0 0 1024 1024" version="1.1" xmlns="http://www.w3.org/2000/svg" p-id="972" width="128" height="128" xmlns:xlink="http://www.w3.org/1999/xlink"><defs><style type="text/css"></style></defs><path d="M447.032889 915.000889a387.754667 387.754667 0 0 1-151.893333-30.663111 391.395556 391.395556 0 0 1-207.587556-207.644445A387.754667 387.754667 0 0 1 56.888889 524.913778a388.949333 388.949333 0 0 1 113.891555-275.456 388.835556 388.835556 0 0 1 275.000889-114.688 17.806222 17.806222 0 0 1 17.863111 17.806222v352.312889h355.726223c9.784889 0 17.692444 7.793778 17.806222 17.578667v2.446222a389.006222 389.006222 0 0 1-114.289778 275.911111 388.835556 388.835556 0 0 1-275.854222 114.232889zM428.885333 191.601778A330.524444 330.524444 0 0 0 211.057778 288.995556a330.922667 330.922667 0 0 0-97.28 235.178666 330.922667 330.922667 0 0 0 97.564444 235.52 330.752 330.752 0 0 0 235.463111 97.507556 330.752 330.752 0 0 0 235.406223-97.507556A330.695111 330.695111 0 0 0 779.377778 538.737778H445.610667a16.725333 16.725333 0 0 1-16.725334-16.725334V191.601778z" p-id="973"></path><path d="M528.497778 462.563556a17.806222 17.806222 0 0 1-17.749334-17.749334V74.752c0-9.671111 7.68-17.635556 17.351112-17.863111h1.649777a388.778667 388.778667 0 0 1 275.114667 113.493333 388.835556 388.835556 0 0 1 115.029333 274.261334 17.806222 17.806222 0 0 1-17.806222 17.92H528.554667z m39.139555-64.284445h286.72a239.786667 239.786667 0 0 0-70.826666-157.582222C741.148444 198.257778 627.484444 116.394667 567.637333 113.777778v284.444444z" p-id="974"></path></svg>