<?xml version="1.0" standalone="no"?><!DOCTYPE svg PUBLIC "-//W3C//DTD SVG 1.1//EN" "http://www.w3.org/Graphics/SVG/1.1/DTD/svg11.dtd"><svg t="1613799410412" class="icon" viewBox="0 0 1024 1024" version="1.1" xmlns="http://www.w3.org/2000/svg" p-id="3478" width="128" height="128" xmlns:xlink="http://www.w3.org/1999/xlink"><defs><style type="text/css"></style></defs><path d="M154.965333 120.888889a34.133333 34.133333 0 0 0-34.076444 34.076444V364.088889A34.133333 34.133333 0 0 0 154.965333 398.222222h209.237334C382.976 398.222222 398.222222 382.919111 398.222222 364.145778V154.965333a34.133333 34.133333 0 0 0-34.019555-34.076444H154.908444z m209.237334 341.333333H154.908444A98.133333 98.133333 0 0 1 56.888889 364.145778V154.908444C56.888889 100.807111 100.807111 56.945778 154.965333 56.888889h209.237334a98.133333 98.133333 0 0 1 98.019555 98.019555v209.237334c0 54.158222-43.918222 98.019556-98.019555 98.076444zM154.908444 568.888889a34.133333 34.133333 0 0 0-34.019555 34.076444v209.237334a34.133333 34.133333 0 0 0 34.076444 34.019555h209.237334c18.773333 0 34.019556-15.246222 34.019555-34.019555v-209.237334A34.133333 34.133333 0 0 0 364.202667 568.888889H154.908444z m209.351112 341.333333h-209.351112A98.133333 98.133333 0 0 1 56.888889 812.202667v-209.237334c0-54.158222 43.918222-98.019556 98.076444-98.076444h209.237334a98.133333 98.133333 0 0 1 98.019555 98.076444v209.237334c0 54.044444-43.918222 97.962667-98.019555 98.019555z m238.705777-341.333333a34.133333 34.133333 0 0 0-34.076444 34.076444v209.237334a34.133333 34.133333 0 0 0 34.076444 34.019555h209.237334c18.773333 0 34.019556-15.246222 34.019555-34.019555v-209.237334a34.133333 34.133333 0 0 0-34.019555-34.076444H603.022222z m209.237334 341.333333H603.022222a98.133333 98.133333 0 0 1-98.076444-98.019555v-209.237334c0-54.158222 43.918222-98.019556 98.076444-98.076444h209.237334A98.133333 98.133333 0 0 1 910.222222 602.965333v209.237334c0 54.044444-43.918222 97.962667-98.019555 98.019555z m-104.675556-789.333333A138.808889 138.808889 0 0 0 568.888889 259.584 138.808889 138.808889 0 0 0 707.584 398.222222a138.808889 138.808889 0 0 0 138.638222-138.695111 138.808889 138.808889 0 0 0-138.695111-138.638222z m0 341.333333a202.922667 202.922667 0 0 1-202.638222-202.695111A202.922667 202.922667 0 0 1 707.584 56.888889 202.922667 202.922667 0 0 1 910.222222 259.527111a202.922667 202.922667 0 0 1-202.695111 202.695111z" p-id="3479"></path></svg>