<?xml version="1.0" standalone="no"?><!DOCTYPE svg PUBLIC "-//W3C//DTD SVG 1.1//EN" "http://www.w3.org/Graphics/SVG/1.1/DTD/svg11.dtd"><svg t="1613799049193" class="icon" viewBox="0 0 1024 1024" version="1.1" xmlns="http://www.w3.org/2000/svg" p-id="1960" width="128" height="128" xmlns:xlink="http://www.w3.org/1999/xlink"><defs><style type="text/css"></style></defs><path d="M294.286222 602.453333l-88.519111 90.567111 118.044445 120.661334 472.234666-482.702222-118.044444-120.604445-88.576 90.453333 59.050666 60.302223L589.368889 421.546667 530.375111 361.187556 471.381333 421.546667l58.993778 60.302222-58.993778 60.359111-59.050666-60.302222L353.28 542.151111l59.050667 60.302222-59.050667 60.416-58.993778-60.472889z m413.240889-482.645333l177.095111 181.020444a43.349333 43.349333 0 0 1 0 60.302223l-531.342222 543.061333a41.130667 41.130667 0 0 1-58.993778 0L117.191111 723.228444a43.349333 43.349333 0 0 1 0-60.359111l531.342222-543.061333a41.130667 41.130667 0 0 1 58.993778 0z m-118.101333 663.665778l59.050666-60.302222 93.582223 95.687111h58.993777v-60.302223l-93.582222-95.744 59.050667-60.302222 110.08 112.469334v181.020444h-177.095111l-110.08-112.526222zM235.235556 421.546667L117.191111 300.828444a43.121778 43.121778 0 0 1 0-60.416l118.044445-120.604444a41.130667 41.130667 0 0 1 59.050666 0l118.101334 120.604444L353.28 300.828444 264.760889 210.261333 205.767111 270.620444l88.519111 90.453334L235.235556 421.546667z" p-id="1961"></path></svg>