<?xml version="1.0" standalone="no"?><!DOCTYPE svg PUBLIC "-//W3C//DTD SVG 1.1//EN" "http://www.w3.org/Graphics/SVG/1.1/DTD/svg11.dtd"><svg t="1613798746963" class="icon" viewBox="0 0 1024 1024" version="1.1" xmlns="http://www.w3.org/2000/svg" p-id="4239" width="128" height="128" xmlns:xlink="http://www.w3.org/1999/xlink"><defs><style type="text/css"></style></defs><path d="M333.937778 341.333333v341.333334h333.937778V341.333333H333.937778zM250.481778 256h500.906666v512H250.481778v-512z m0-170.666667H333.937778v128H250.481778V85.333333z m0 725.333334H333.937778v128H250.481778v-128zM83.512889 256h125.155555V341.333333h-125.155555V256z m0 426.666667h125.155555v85.333333h-125.155555V682.666667zM793.031111 256h125.269333V341.333333H793.031111V256z m0 426.666667h125.269333v85.333333H793.031111V682.666667zM667.875556 85.333333h83.512888v128H667.875556V85.333333z m0 725.333334h83.512888v128H667.875556v-128z" p-id="4240"></path></svg>