<?xml version="1.0" standalone="no"?><!DOCTYPE svg PUBLIC "-//W3C//DTD SVG 1.1//EN" "http://www.w3.org/Graphics/SVG/1.1/DTD/svg11.dtd"><svg t="1613799666733" class="icon" viewBox="0 0 1024 1024" version="1.1" xmlns="http://www.w3.org/2000/svg" p-id="4370" width="128" height="128" xmlns:xlink="http://www.w3.org/1999/xlink"><defs><style type="text/css"></style></defs><path d="M512 938.666667a426.666667 426.666667 0 1 1 0-853.333334 426.666667 426.666667 0 0 1 0 853.333334z m-212.764444-159.744A339.911111 339.911111 0 0 0 512 853.333333c84.081778 0 160.995556-30.378667 220.444444-80.725333A297.756444 297.756444 0 0 0 518.826667 682.666667a297.870222 297.870222 0 0 0-219.591111 96.256z m-59.619556-61.269334A382.919111 382.919111 0 0 1 518.826667 597.333333a382.805333 382.805333 0 0 1 271.473777 112.355556 341.333333 341.333333 0 1 0-550.684444 7.964444zM512 554.666667a170.666667 170.666667 0 1 1 0-341.333334 170.666667 170.666667 0 0 1 0 341.333334z m0-85.333334a85.333333 85.333333 0 1 0 0-170.666666 85.333333 85.333333 0 0 0 0 170.666666z" p-id="4371"></path></svg>