<?xml version="1.0" standalone="no"?><!DOCTYPE svg PUBLIC "-//W3C//DTD SVG 1.1//EN" "http://www.w3.org/Graphics/SVG/1.1/DTD/svg11.dtd"><svg t="1613798610837" class="icon" viewBox="0 0 1024 1024" version="1.1" xmlns="http://www.w3.org/2000/svg" p-id="3841" width="128" height="128" xmlns:xlink="http://www.w3.org/1999/xlink"><defs><style type="text/css"></style></defs><path d="M499.370667 57.571556c27.875556 0 50.517333 18.944 53.816889 43.690666l0.398222 6.257778v64.455111l313.230222 112.071111c21.447111 6.428444 33.336889 21.845333 35.726222 40.049778l0.398222 6.940444v375.239112l66.275556 30.72c30.151111 10.808889 42.154667 40.391111 30.151111 65.649777a51.939556 51.939556 0 0 1-60.131555 28.16l-6.144-2.275555-78.336-33.109334-331.264 157.240889a47.786667 47.786667 0 0 1-36.693334 2.389334l-5.461333-2.389334-337.351111-157.240889-72.248889 33.166223c-24.120889 10.808889-54.215111-0.625778-66.275556-25.941334a49.208889 49.208889 0 0 1 18.773334-62.805333l5.290666-2.844444 72.305778-30.72V331.093333c0-18.773333 9.500444-35.555556 28.558222-44.145777l320.853334-114.915556V107.52c0-27.704889 24.064-49.948444 48.128-49.948444z m301.169777 354.190222l-246.897777 104.163555v312.661334l246.897777-117.475556V411.761778z m-596.309333 0V711.111111l246.954667 117.475556V515.925333l-246.897778-104.163555z m313.230222-145.180445c-10.069333-3.527111-20.081778-4.096-26.624-1.820444l-3.470222 1.820444-204.8 71.111111 216.803556 90.908445 222.890666-90.965333-204.8-71.111112z" p-id="3842"></path></svg>