<?xml version="1.0" standalone="no"?><!DOCTYPE svg PUBLIC "-//W3C//DTD SVG 1.1//EN" "http://www.w3.org/Graphics/SVG/1.1/DTD/svg11.dtd"><svg t="1613797597903" class="icon" viewBox="0 0 1024 1024" version="1.1" xmlns="http://www.w3.org/2000/svg" p-id="3596" width="128" height="128" xmlns:xlink="http://www.w3.org/1999/xlink"><defs><style type="text/css"></style></defs><path d="M329.955556 387.754667v429.169777H134.997333V387.754667H329.955556m39.025777-78.051556H95.914667A39.025778 39.025778 0 0 0 56.888889 348.728889v507.164444c0 21.617778 17.464889 39.025778 39.025778 39.025778h273.066666a39.025778 39.025778 0 0 0 39.025778-39.025778V348.728889a39.025778 39.025778 0 0 0-38.968889-39.025778z" p-id="3597"></path><path d="M604.956444 192.625778V816.924444h-195.128888V192.625778h195.128888m38.968889-77.994667h-273.066666a39.025778 39.025778 0 0 0-39.025778 39.025778v702.236444c0 21.617778 17.464889 39.025778 39.025778 39.025778h273.066666a39.025778 39.025778 0 0 0 39.025778-39.025778V153.656889a39.025778 39.025778 0 0 0-39.025778-39.025778z" p-id="3598"></path><path d="M878.876444 582.826667v234.097777h-195.128888v-234.097777h195.128888m38.968889-78.051556h-273.066666a39.025778 39.025778 0 0 0-39.025778 39.025778v312.092444c0 21.617778 17.464889 39.025778 39.025778 39.025778h273.066666a39.025778 39.025778 0 0 0 39.025778-39.025778V543.857778a39.025778 39.025778 0 0 0-39.025778-39.025778z" p-id="3599"></path></svg>