<?xml version="1.0" standalone="no"?><!DOCTYPE svg PUBLIC "-//W3C//DTD SVG 1.1//EN" "http://www.w3.org/Graphics/SVG/1.1/DTD/svg11.dtd"><svg t="1613797514461" class="icon" viewBox="0 0 1024 1024" version="1.1" xmlns="http://www.w3.org/2000/svg" p-id="3253" width="128" height="128" xmlns:xlink="http://www.w3.org/1999/xlink"><defs><style type="text/css"></style></defs><path d="M709.632 128h166.968889c23.04 0 41.756444 19.114667 41.756444 42.666667v682.666666c0 23.552-18.716444 42.666667-41.756444 42.666667H125.155556a42.211556 42.211556 0 0 1-41.699556-42.666667V170.666667c0-23.552 18.659556-42.666667 41.699556-42.666667h166.968888V42.666667h83.512889v85.333333h250.424889V42.666667h83.512889v85.333333z m125.212444 341.333333H166.968889v341.333334h667.875555v-341.333334z m-208.725333-256H375.694222v85.333334H292.181333v-85.333334H166.968889v170.666667h667.875555v-170.666667h-125.212444v85.333334h-83.512889v-85.333334z m-375.637333 341.333334H333.937778v85.333333H250.481778v-85.333333z m208.668444 0H542.72v85.333333H459.093333v-85.333333z m208.725334 0h83.512888v85.333333H667.875556v-85.333333z" p-id="3254"></path></svg>