<?xml version="1.0" standalone="no"?><!DOCTYPE svg PUBLIC "-//W3C//DTD SVG 1.1//EN" "http://www.w3.org/Graphics/SVG/1.1/DTD/svg11.dtd"><svg t="1613799272490" class="icon" viewBox="0 0 1024 1024" version="1.1" xmlns="http://www.w3.org/2000/svg" p-id="3037" width="128" height="128" xmlns:xlink="http://www.w3.org/1999/xlink"><defs><style type="text/css"></style></defs><path d="M856.860444 648.533333l51.313778 30.72a21.333333 21.333333 0 0 1 0 36.636445l-374.215111 224.540444a42.666667 42.666667 0 0 1-43.918222 0l-374.215111-224.540444a21.333333 21.333333 0 0 1 0-36.579556l51.313778-30.776889L512 855.438222l344.860444-206.904889z m0-200.533333l51.313778 30.72a21.333333 21.333333 0 0 1 0 36.636444L512 753.038222 115.825778 515.413333a21.333333 21.333333 0 0 1 0-36.579555l51.313778-30.776889L512 654.961778l344.860444-206.961778zM533.902222 55.864889l374.272 224.483555a21.333333 21.333333 0 0 1 0 36.636445L512 554.666667 115.825778 316.984889a21.333333 21.333333 0 0 1 0-36.636445L490.040889 55.864889a42.666667 42.666667 0 0 1 43.918222 0zM512 142.165333L251.164444 298.666667 512 455.168l260.835556-156.501333L512 142.165333z" p-id="3038"></path></svg>