<?xml version="1.0" standalone="no"?><!DOCTYPE svg PUBLIC "-//W3C//DTD SVG 1.1//EN" "http://www.w3.org/Graphics/SVG/1.1/DTD/svg11.dtd"><svg t="1613799322670" class="icon" viewBox="0 0 1024 1024" version="1.1" xmlns="http://www.w3.org/2000/svg" p-id="3280" width="128" height="128" xmlns:xlink="http://www.w3.org/1999/xlink"><defs><style type="text/css"></style></defs><path d="M683.235556 987.420444H189.610667a131.640889 131.640889 0 0 1-131.640889-131.640888V197.404444a131.640889 131.640889 0 0 1 131.640889-131.640888h493.738666a131.640889 131.640889 0 0 1 131.640889 131.640888v658.318223a131.640889 131.640889 0 0 1-131.640889 131.640889zM189.610667 131.640889a65.991111 65.991111 0 0 0-65.820445 65.820444v658.318223c0 36.181333 29.582222 65.820444 65.820445 65.820444h493.738666a65.991111 65.991111 0 0 0 65.820445-65.820444V197.404444a65.991111 65.991111 0 0 0-65.820445-65.820444H189.553778z" p-id="3281"></path><path d="M222.435556 0h65.877333v230.4H222.492444zM584.533333 0h65.820445v230.4h-65.820445zM222.435556 362.040889h427.918222a32.995556 32.995556 0 0 1 32.938666 32.938667 32.995556 32.995556 0 0 1-32.938666 32.881777H222.492444a32.995556 32.995556 0 0 1-32.938666-32.881777 32.995556 32.995556 0 0 1 32.938666-32.938667z" p-id="3282"></path><path d="M222.435556 362.040889h427.918222v65.820444H222.492444zM222.435556 559.559111h230.4a32.995556 32.995556 0 0 1 32.995555 32.881778 32.995556 32.995556 0 0 1-32.995555 32.938667H222.435556a32.995556 32.995556 0 0 1-32.881778-32.938667 32.995556 32.995556 0 0 1 32.938666-32.881778z" p-id="3283"></path><path d="M222.435556 559.559111h230.4v65.820445H222.435556zM356.465778 868.864a38.912 38.912 0 0 1 4.266666-54.784l448.625778-387.640889a39.253333 39.253333 0 0 1 55.296 3.868445 38.855111 38.855111 0 0 1-4.096 55.011555l-448.398222 387.413333a39.822222 39.822222 0 0 1-55.751111-3.868444z" p-id="3284"></path><path d="M877.112889 419.498667l-24.860445 21.617777a22.755556 22.755556 0 0 0-32.085333-2.275555l-448.625778 387.640889a22.186667 22.186667 0 0 0-7.623111 15.36 22.186667 22.186667 0 0 0 5.404445 16.213333 22.869333 22.869333 0 0 0 32.312889 2.048l448.341333-387.413333a22.186667 22.186667 0 0 0 7.68-15.36 22.186667 22.186667 0 0 0-5.404445-16.213334l24.860445-21.617777m0 0a55.182222 55.182222 0 0 1-5.518222 78.051555L422.968889 885.191111a55.751111 55.751111 0 0 1-78.506667-5.518222 55.182222 55.182222 0 0 1 5.518222-77.994667l448.625778-387.640889a55.751111 55.751111 0 0 1 78.506667 5.461334z" p-id="3285"></path><path d="M727.324444 485.262222l24.860445-21.617778 63.829333 73.671112-24.860444 21.560888z" p-id="3286"></path></svg>