<?xml version="1.0" standalone="no"?><!DOCTYPE svg PUBLIC "-//W3C//DTD SVG 1.1//EN" "http://www.w3.org/Graphics/SVG/1.1/DTD/svg11.dtd"><svg t="1613799572297" class="icon" viewBox="0 0 1024 1024" version="1.1" xmlns="http://www.w3.org/2000/svg" p-id="3727" width="128" height="128" xmlns:xlink="http://www.w3.org/1999/xlink"><defs><style type="text/css"></style></defs><path d="M547.669333 726.300444L372.394667 628.622222a164.408889 164.408889 0 0 1-183.239111 42.097778C125.383111 645.12 83.456 582.144 83.456 512c0-70.030222 41.927111-133.006222 105.699556-158.72a164.408889 164.408889 0 0 1 183.182222 42.154667l175.388444-97.678223c-20.593778-83.342222 22.641778-169.358222 100.864-200.704 78.279111-31.402667 167.196444 1.649778 207.530667 77.027556 40.277333 75.434667 19.456 169.699556-48.64 220.16a164.352 164.352 0 0 1-219.761778-21.617778L412.444444 470.300444a174.648889 174.648889 0 0 1 0 83.399112l175.274667 97.678222a164.352 164.352 0 0 1 219.761778-21.617778c68.096 50.460444 88.974222 144.725333 48.64 220.16-40.334222 75.377778-129.194667 108.430222-207.473778 77.027556-78.279111-31.345778-121.514667-117.361778-100.920889-200.647112zM250.424889 597.333333c46.136889 0 83.512889-38.229333 83.512889-85.333333s-37.376-85.333333-83.512889-85.333333c-46.08 0-83.456 38.229333-83.456 85.333333s37.376 85.333333 83.456 85.333333zM709.632 341.333333c46.08 0 83.456-38.229333 83.456-85.333333S755.712 170.666667 709.632 170.666667s-83.512889 38.229333-83.512889 85.333333 37.376 85.333333 83.512889 85.333333z m0 512c46.08 0 83.456-38.229333 83.456-85.333333s-37.376-85.333333-83.456-85.333333-83.512889 38.229333-83.512889 85.333333 37.376 85.333333 83.512889 85.333333z" p-id="3728"></path></svg>